<mxfile host="diagram.qzrok.cn" modified="2020-10-12T08:49:48.233Z" agent="Mozilla/5.0 (Windows NT 10.0; Win64; x64) AppleWebKit/537.36 (KHTML, like Gecko) Chrome/80.0.3987.149 Safari/537.36" etag="hxTy0IdwXfcQClW-UT0a" version="12.9.3" type="github">
  <diagram id="SkMzPhTBbyZ_zyWaAGZy" name="第 1 页">
    <mxGraphModel dx="1422" dy="793" grid="0" gridSize="10" guides="1" tooltips="1" connect="1" arrows="1" fold="1" page="1" pageScale="1" pageWidth="827" pageHeight="1169" math="0" shadow="0">
      <root>
        <mxCell id="0" />
        <mxCell id="1" parent="0" />
        <mxCell id="2YOUZ-Z0bVTe1FbO1rfL-2" value="" style="rounded=1;whiteSpace=wrap;html=1;dashed=1;fillColor=none;perimeter=rectanglePerimeter;arcSize=6;strokeWidth=2;strokeColor=#363636;" vertex="1" parent="1">
          <mxGeometry x="58" y="180" width="180" height="340" as="geometry" />
        </mxCell>
        <mxCell id="2YOUZ-Z0bVTe1FbO1rfL-1" value="SaaS" style="rounded=1;whiteSpace=wrap;html=1;fontColor=#FFFFFF;strokeColor=#828282;arcSize=5;fontSize=15;fillColor=#00009E;" vertex="1" parent="1">
          <mxGeometry x="88" y="240" width="120" height="60" as="geometry" />
        </mxCell>
        <mxCell id="2YOUZ-Z0bVTe1FbO1rfL-3" value="云 3 层概念&lt;br style=&quot;font-size: 17px;&quot;&gt;" style="text;html=1;strokeColor=none;fillColor=none;align=center;verticalAlign=middle;whiteSpace=wrap;rounded=0;dashed=1;fontSize=17;fontStyle=1" vertex="1" parent="1">
          <mxGeometry x="98" y="200" width="90" height="20" as="geometry" />
        </mxCell>
        <mxCell id="2YOUZ-Z0bVTe1FbO1rfL-4" value="PaaS" style="rounded=1;whiteSpace=wrap;html=1;arcSize=5;strokeColor=#828282;fontSize=15;fillColor=#00009E;fontColor=#FFFFFF;" vertex="1" parent="1">
          <mxGeometry x="88" y="330" width="120" height="60" as="geometry" />
        </mxCell>
        <mxCell id="2YOUZ-Z0bVTe1FbO1rfL-5" value="IaaS" style="rounded=1;whiteSpace=wrap;html=1;arcSize=5;strokeColor=#828282;fontSize=15;fillColor=#00009E;fontColor=#FFFFFF;" vertex="1" parent="1">
          <mxGeometry x="88" y="420" width="120" height="60" as="geometry" />
        </mxCell>
        <mxCell id="2YOUZ-Z0bVTe1FbO1rfL-6" value="" style="rounded=1;whiteSpace=wrap;html=1;dashed=1;fillColor=none;perimeter=rectanglePerimeter;arcSize=6;fontColor=#000000;strokeWidth=2;strokeColor=#363636;" vertex="1" parent="1">
          <mxGeometry x="320" y="180" width="460" height="340" as="geometry" />
        </mxCell>
        <mxCell id="2YOUZ-Z0bVTe1FbO1rfL-7" value="云原生概念" style="text;html=1;strokeColor=none;fillColor=none;align=center;verticalAlign=middle;whiteSpace=wrap;rounded=0;dashed=1;fontSize=17;fontStyle=1" vertex="1" parent="1">
          <mxGeometry x="505" y="200" width="90" height="20" as="geometry" />
        </mxCell>
        <mxCell id="2YOUZ-Z0bVTe1FbO1rfL-8" value="&lt;font style=&quot;font-size: 15px&quot;&gt;微服务&lt;br&gt;（技术）&lt;/font&gt;" style="rounded=1;whiteSpace=wrap;html=1;strokeColor=#6c8ebf;arcSize=5;fillColor=#00009E;fontColor=#FFFFFF;" vertex="1" parent="1">
          <mxGeometry x="354" y="240" width="166" height="150" as="geometry" />
        </mxCell>
        <mxCell id="2YOUZ-Z0bVTe1FbO1rfL-9" value="敏捷基础设施&lt;br&gt;（技术）" style="rounded=1;whiteSpace=wrap;html=1;arcSize=5;strokeColor=#6c8ebf;fontSize=15;fillColor=#00009E;fontColor=#FFFFFF;" vertex="1" parent="1">
          <mxGeometry x="355" y="415" width="166" height="70" as="geometry" />
        </mxCell>
        <mxCell id="2YOUZ-Z0bVTe1FbO1rfL-10" value="持续交付&lt;br&gt;（管理）" style="rounded=1;whiteSpace=wrap;html=1;arcSize=5;strokeColor=#6c8ebf;fontSize=15;fillColor=#00009E;fontColor=#FFFFFF;" vertex="1" parent="1">
          <mxGeometry x="540" y="240" width="100" height="240" as="geometry" />
        </mxCell>
        <mxCell id="2YOUZ-Z0bVTe1FbO1rfL-11" value="DevOps&lt;br&gt;（管理）" style="rounded=1;whiteSpace=wrap;html=1;arcSize=5;strokeColor=#6c8ebf;fontSize=15;fillColor=#00009E;fontColor=#FFFFFF;" vertex="1" parent="1">
          <mxGeometry x="660" y="240" width="100" height="240" as="geometry" />
        </mxCell>
        <mxCell id="2YOUZ-Z0bVTe1FbO1rfL-12" value="" style="endArrow=none;html=1;fontSize=15;fontColor=#000000;exitX=1;exitY=0.5;exitDx=0;exitDy=0;entryX=1;entryY=0.5;entryDx=0;entryDy=0;rounded=0;strokeWidth=2;strokeColor=#333333;" edge="1" parent="1" source="2YOUZ-Z0bVTe1FbO1rfL-1" target="2YOUZ-Z0bVTe1FbO1rfL-4">
          <mxGeometry width="50" height="50" relative="1" as="geometry">
            <mxPoint x="358" y="430" as="sourcePoint" />
            <mxPoint x="268" y="370" as="targetPoint" />
            <Array as="points">
              <mxPoint x="258" y="270" />
              <mxPoint x="258" y="360" />
            </Array>
          </mxGeometry>
        </mxCell>
        <mxCell id="2YOUZ-Z0bVTe1FbO1rfL-14" value="" style="endArrow=classic;html=1;fontSize=15;fontColor=#000000;entryX=0;entryY=0.5;entryDx=0;entryDy=0;strokeWidth=2;strokeColor=#333333;" edge="1" parent="1" target="2YOUZ-Z0bVTe1FbO1rfL-8">
          <mxGeometry width="50" height="50" relative="1" as="geometry">
            <mxPoint x="258" y="315" as="sourcePoint" />
            <mxPoint x="408" y="380" as="targetPoint" />
          </mxGeometry>
        </mxCell>
        <mxCell id="2YOUZ-Z0bVTe1FbO1rfL-16" value="采纳" style="text;html=1;align=center;verticalAlign=middle;resizable=0;points=[];labelBackgroundColor=#ffffff;fontSize=15;fontColor=#000000;" vertex="1" connectable="0" parent="2YOUZ-Z0bVTe1FbO1rfL-14">
          <mxGeometry x="-0.1774" relative="1" as="geometry">
            <mxPoint y="-15" as="offset" />
          </mxGeometry>
        </mxCell>
        <mxCell id="2YOUZ-Z0bVTe1FbO1rfL-15" value="支撑" style="endArrow=classic;html=1;fontSize=15;fontColor=#000000;exitX=1;exitY=0.5;exitDx=0;exitDy=0;strokeWidth=2;strokeColor=#333333;" edge="1" parent="1" source="2YOUZ-Z0bVTe1FbO1rfL-5">
          <mxGeometry x="-0.0857" y="10" width="50" height="50" relative="1" as="geometry">
            <mxPoint x="208" y="449.5" as="sourcePoint" />
            <mxPoint x="360" y="450" as="targetPoint" />
            <mxPoint as="offset" />
          </mxGeometry>
        </mxCell>
        <mxCell id="2YOUZ-Z0bVTe1FbO1rfL-17" value="&lt;font&gt;云原生内容&lt;/font&gt;" style="text;html=1;strokeColor=none;fillColor=none;align=center;verticalAlign=middle;whiteSpace=wrap;rounded=0;dashed=1;fontSize=17;fontColor=#545454;" vertex="1" parent="1">
          <mxGeometry x="378" y="545" width="118" height="25" as="geometry" />
        </mxCell>
      </root>
    </mxGraphModel>
  </diagram>
</mxfile>
